<svg xmlns="http://www.w3.org/2000/svg" viewBox="0 0 137.7 110.8" enable-background="new 0 0 137.7 110.8"><path fill="#fff" d="M27 10h-22c-2.8 0-5-2.2-5-5s2.2-5 5-5h22c2.8 0 5 2.2 5 5s-2.2 5-5 5zM56.7 81.5c-2 0-3.8-1.2-4.6-3.1l-29.7-71.5c-1.1-2.6.1-5.5 2.7-6.5 2.6-1.1 5.5.2 6.5 2.7l29.7 71.5c1.1 2.6-.1 5.5-2.7 6.5-.6.3-1.3.4-1.9.4zM117 82h-60c-2.8 0-5-2.2-5-5s2.2-5 5-5h60c2.8 0 5 2.2 5 5s-2.2 5-5 5zM117 82c-.5 0-.9-.1-1.4-.2-2.7-.8-4.2-3.5-3.4-6.2l15.7-53.9c.8-2.7 3.5-4.2 6.2-3.4 2.7.8 4.2 3.5 3.4 6.2l-15.7 53.9c-.6 2.2-2.6 3.6-4.8 3.6zM132 28h-97c-2.8 0-5-2.2-5-5s2.2-5 5-5h97c2.8 0 5 2.2 5 5s-2.2 5-5 5z"/><circle fill="#fff" cx="62.3" cy="102.7" r="8"/><circle fill="#fff" cx="113.1" cy="102.7" r="8"/></svg>