<svg xmlns="http://www.w3.org/2000/svg" viewBox="0 0 153.2 14.7" enable-background="new 0 0 153.2 14.7"><path fill="#ffffff" d="M19 9.2c-.6 0-.9.2-1.1.4-.2.2-.4.3-.7.3-.4 0-.5-.1-.7-.3-.2-.2-.5-.4-1.1-.4-.6 0-.9.2-1.1.4-.3.2-.5.4-.9.4s-.5-.1-.7-.3c-.2-.2-.5-.4-1.1-.4s-.9.2-1.1.4c-.3.1-.4.3-.8.3s-.5-.2-.7-.3c-.3-.2-.6-.5-1.1-.5-.6 0-.9.3-1.2.5-.2.1-.4.3-.7.3-.4 0-.5-.1-.7-.3-.3-.2-.6-.5-1.2-.5s-.9.3-1.1.5c-.2.1-.4.3-.8.3s-.5-.1-.7-.3c-.2-.2-.5-.5-1.1-.5-.2 0-.3.1-.3.3 0 .2.1.3.3.3.4 0 .5.1.7.3.2.2.5.4 1.1.4s.9-.2 1.1-.4c.2-.2.4-.3.7-.3.4 0 .5.1.7.3.2.2.5.4 1.1.4.6 0 .9-.2 1.1-.4.2-.2.4-.3.7-.3.4 0 .5.1.7.3.2.2.5.4 1.1.4s.9-.2 1.1-.4c.2-.2.4-.3.7-.3.4 0 .5.1.7.3.2.2.5.4 1.1.4.6 0 .9-.2 1.1-.4.2-.2.4-.3.7-.3.4 0 .5.1.7.3.2.2.5.4 1.1.4.6 0 .9-.2 1.1-.4.2-.2.4-.3.7-.3 0 0 .3 0 .3-.3.6-.2.4-.3.3-.3M19 11.2c-.6 0-.9.2-1.1.4-.2.2-.4.3-.7.3-.4 0-.5-.1-.7-.3-.2-.2-.5-.4-1.1-.4-.6 0-.9.2-1.1.4-.3.2-.5.4-.9.4s-.5-.1-.7-.3c-.2-.2-.5-.4-1.1-.4s-.9.2-1.1.4c-.2.2-.4.3-.7.3s-.6-.2-.8-.4c-.2-.2-.5-.4-1.1-.4-.6 0-.9.2-1.1.4-.3.2-.5.4-.8.4-.4 0-.5-.1-.7-.3-.2-.2-.5-.4-1.1-.4s-1 .1-1.2.3c-.2.2-.4.4-.8.4s-.5-.1-.7-.3c-.2-.2-.5-.4-1.1-.4-.2 0-.3.1-.3.3s.1.3.3.3c.4 0 .5.1.7.3.2.2.5.4 1.1.4s.9-.2 1.1-.4c.2-.2.4-.3.7-.3.4 0 .5.1.7.3.2.2.5.4 1.1.4.6 0 .9-.2 1.1-.4.2-.2.4-.3.7-.3.4 0 .5.1.7.3.2.2.5.4 1.1.4s.9-.2 1.1-.4c.2-.2.4-.3.7-.3.4 0 .5.1.7.3.2.2.5.4 1.1.4.6 0 .9-.2 1.1-.4.2-.2.4-.3.7-.3.4 0 .5.1.7.3.2.2.5.4 1.1.4.6 0 .9-.2 1.1-.4.2-.2.4-.3.7-.3 0 0 .3 0 .3-.3.6-.3.4-.4.3-.4M19 13.2c-.6 0-.9.2-1.1.4-.2.2-.4.3-.7.3-.4 0-.5-.1-.7-.3-.2-.2-.5-.4-1.1-.4-.6 0-.9.2-1.1.4-.2.2-.4.3-.7.3-.4 0-.5-.1-.7-.3-.2-.2-.5-.4-1.1-.4s-.9.2-1.1.4c-.2.2-.4.3-.7.3s-.8-.1-1-.3c-.2-.2-.5-.4-1.1-.4-.6 0-.9.2-1.1.4-.2.2-.4.3-.7.3-.4 0-.5-.1-.7-.3-.2-.2-.5-.4-1.1-.4s-1.1.2-1.3.4c-.2.2-.4.3-.7.3-.4 0-.5-.1-.7-.3-.2-.2-.5-.4-1.1-.4-.2 0-.3.1-.3.3 0 .2.1.3.3.3.4 0 .5.1.7.3.2.2.5.4 1.1.4s.9-.2 1.1-.4c.2-.2.4-.3.7-.3.4 0 .5.1.7.3.2.2.5.4 1.1.4.6 0 .9-.2 1.1-.4.2-.2.4-.3.7-.3.4 0 .5.1.7.3.2.2.5.4 1.1.4s.9-.2 1.1-.4c.2-.2.4-.3.7-.3.4 0 .5.1.7.3.2.2.5.4 1.1.4.6 0 .9-.2 1.1-.4.2-.2.4-.3.7-.3.4 0 .5.1.7.3.2.2.5.4 1.1.4.6 0 .9-.2 1.1-.4.2-.2.4-.3.7-.3 0 0 .3 0 .3-.3.5-.3.3-.3.2-.3"/><path fill="#ffffff" d="M13.8.5v6.9h5.5v-1.3h-4v-1.8h3v-1.3h-3v-1.2h3.8v-1.3zM10.8.5v2.5h-2.6v-2.5h-1.5v6.9h1.5v-3.1h2.6v3.1h1.5v-6.9zM0 .5v1.3h2v5.6h1.5v-5.6h2v-1.3zM51.8 8.1h5.8v-2.6h-5.8v-2.4h7.5v-2.5h-10.6v13.6h10.9v-2.6h-7.8zM131.7 8.1h5.8v-2.6h-5.8v-2.4h7.5v-2.5h-10.6v13.6h10.9v-2.6h-7.8zM64.5 5l5.8 9.2h2.5v-13.6h-2.9v8l-5-8h-3.3v13.6h2.9zM123 5.5h-5.1v-4.9h-3.1v13.6h3.1v-6.1h5.1v6.1h3.1v-13.6h-3.1zM147.5 5.3c-2.8-.6-3.1-.9-3.1-1.7 0-.8 1-1.4 2.2-1.4 1.2 0 2.6.7 2.7 2.5l3.1-.6c0-2.6-2.9-4.2-5.8-4.2s-5.2 1.5-5.2 4.1c0 2.3 2.1 3.4 5.2 4 1.5.3 3.3.8 3.3 2.2 0 1.2-1.3 2-2.8 2-1.5 0-2.7-.8-2.9-1.9-.1-.6-.2-1-.1-1.4l-3.2.8c0 .4-.1.5.1 1.2.5 2.3 2.8 3.7 6 3.7 1.3 0 2.5-.2 3.5-.7 1.5-.8 2.7-2.2 2.7-3.9 0-2.3-1.6-3.9-5.7-4.7M86.8 4.5c0-2.1-1.9-3.8-4.3-3.8h-7.3v13.5h3.1v-6h2.6l2.6 6h3.3l-2.7-6.2c1.6-.6 2.7-1.9 2.7-3.5m-4.9 1.3h-3.5v-2.6h3.5c.9 0 1.7.6 1.7 1.3 0 .7-.8 1.3-1.7 1.3"/><path fill="#ffffff" d="M112.7.6h-10.9v2.6h3.9v11h3.1v-11h3.9zM100.2 11.5c.6-1.5.5-2.7.5-4.2 0-1.4.1-2.7-.5-4.2-.8-2.3-2.8-3.1-5.6-3.1s-4.8.8-5.7 3.1c-.6 1.5-.5 2.7-.5 4.2 0 1.4-.1 2.7.5 4.2.9 2.3 2.8 3.1 5.7 3.1 2.8 0 4.8-.8 5.6-3.1m-3-1.1c-.5 1.1-1.3 1.6-2.6 1.6s-2.1-.4-2.6-1.6c-.3-.8-.4-1.3-.4-3.1s0-2.3.4-3.1c.5-1.1 1.3-1.5 2.6-1.5s2.1.4 2.6 1.5c.3.8.4 1.3.4 3.1-.1 1.8-.1 2.3-.4 3.1"/><path fill="#ffffff" d="M39.9.6h-3v13.6h9.8v-2.6h-6.8zM27.9 7.9h3.6c0 .9.1 1.8-.2 2.5-.3.9-1.4 1.7-2.7 1.7-1.3 0-2.4-.7-2.7-1.7-.3-.9-.3-2-.3-3.1s.1-2.2.3-3.1c.3-.9 1.1-1.7 2.7-1.7 1.3 0 2.3.8 2.5 1.8l.1.4 3-.7c-.1-3-2.8-3.9-5.5-3.9-2.8 0-4.7.8-5.6 3.1-.5 1.5-.6 2.7-.6 4.1s0 2.6.6 4.1c.9 2.3 2.8 3.1 5.6 3.1 1.7 0 3-.4 4-1.4l.4 1.2h1.5v-8.8h-6.7v2.4z"/></svg>
