<svg xmlns="http://www.w3.org/2000/svg" viewBox="0 0 152.3 62" enable-background="new 0 0 152.3 62"><path fill="#010202" d="M45.7 44.3h3.7v-1.7h-3.7v-1.5h4.8v-1.7h-6.8v8.8h7v-1.6h-5zM60.5 41.1h2.5v7.1h2v-7.1h2.4v-1.7h-6.9zM56 42.6c-1.7-.3-1.9-.6-1.9-1.1 0-.5.6-.9 1.4-.9.8 0 1.6.4 1.7 1.6l1.9-.4c0-1.6-1.8-2.6-3.6-2.6s-3.3.9-3.3 2.6c0 1.4 1.3 2.1 3.3 2.5.9.2 2.1.5 2.1 1.4 0 .8-.8 1.3-1.7 1.3-.9 0-1.7-.5-1.8-1.2-.1-.4-.1-.6-.1-.9l-2 .5c0 .2 0 .3.1.7.3 1.4 1.7 2.3 3.7 2.3.8 0 1.6-.2 2.2-.5 1-.5 1.7-1.4 1.7-2.5-.2-1.3-1.1-2.3-3.7-2.8M71.6 39.6h-2.9v5.2h2.9c.7 0 1.7-.4 1.7-2.6s-.9-2.6-1.7-2.6m-.4 4.2h-1.2v-3.4h1.3c.8 0 1 .7.9 1.7 0 1-.2 1.7-1 1.7M78.8 41.2v1.5c.3 0 .6 0 .9-.1l.7-.2v6h2v-8.8h-1.3c-.4.7-1.3 1.4-2.3 1.6M90.7 43.2c.5-.4.9-1 .9-1.6 0-1.3-1.5-2.4-3.4-2.4s-3.4 1.1-3.4 2.4c0 .6.3 1.2.9 1.6-.8.6-1.3 1.4-1.3 2.2 0 1.7 1.7 3 3.8 3 2.1 0 3.8-1.4 3.8-3 0-.9-.5-1.7-1.3-2.2m-2.5-2.4c.8 0 1.4.4 1.4.9s-.6.9-1.4.9c-.8 0-1.4-.4-1.4-.9s.6-.9 1.4-.9m0 6c-1 0-1.8-.6-1.8-1.3 0-.7.8-1.3 1.8-1.3s1.8.6 1.8 1.3c0 .7-.8 1.3-1.8 1.3"/><path fill="#010202" d="M93.2 39.5v1.7h4.3c-.3 1-1.5 2.1-2.2 3.6-.9 2-.8 3.5-.8 3.5h2.2s.1-1.6.5-2.6 1-2 1.6-3c.6-.9.7-1.2 1-1.9.2-.7.2-1.4.2-1.4h-6.8zM104.8 39.3h-.2c-1.9 0-3.4 1.5-3.4 3.3 0 1.8 1.5 3.3 3.4 3.3.6 0 1.1-.1 1.6-.4v.1c-.2.8-1.4 1.3-2.5 1-.4-.1-.9-.3-1.3-.6l-.7 1.5c.8.7 2.1.8 3.2.8 2.1 0 3.7-2.1 3.7-4.6 0-3.2-1.7-4.4-3.8-4.4m.1 5c-.8 0-1.4-.7-1.4-1.7 0-.9.6-1.7 1.4-1.7.8 0 1.4.7 1.4 1.7 0 .9-.6 1.7-1.4 1.7"/><path fill="#010202" d="M68.8 45.5h4v.6h-4zM83.2 0v11.8h9.3v-2.2h-6.7v-3.1h5v-2.2h-5v-2.1h6.4v-2.2zM78.1 0v4.2h-4.4v-4.2h-2.6v11.8h2.6v-5.3h4.4v5.3h2.6v-11.8zM59.8 0v2.3h3.3v9.5h2.7v-9.5h3.3v-2.3zM34.2 25.6h6.7v-3h-6.7v-2.8h8.7v-3h-12.3v16h12.7v-3h-9.1zM127.3 25.6h6.7v-3h-6.7v-2.8h8.7v-3h-12.3v16h12.7v-3h-9.1zM49 22l6.7 10.8h3v-16h-3.4v9.4l-5.9-9.4h-3.8v16h3.4zM117.2 22.6h-6v-5.8h-3.5v16h3.5v-7.1h6v7.1h3.6v-16h-3.6zM145.8 22.4c-3.2-.6-3.6-1.1-3.6-2 0-.9 1.1-1.6 2.5-1.6s3 .8 3.2 2.9l3.6-.7c0-3-3.4-4.9-6.8-4.9s-6.1 1.7-6.1 4.8c0 2.6 2.5 4 6.1 4.7 1.8.3 3.9.9 3.9 2.6 0 1.4-1.5 2.4-3.3 2.4-1.8 0-3.2-1-3.4-2.2-.1-.7-.2-1.2-.1-1.6l-3.7.9c0 .4-.1.6.1 1.4.6 2.7 3.2 4.4 6.9 4.4 1.5 0 2.9-.3 4.1-.8 1.8-.9 3.1-2.5 3.1-4.6 0-2.9-1.8-4.7-6.5-5.7M75 21.4c0-2.4-2.2-4.4-5-4.4h-8.5v15.8h3.6v-7h3l3 7h3.9l-3.2-7.3c1.9-.6 3.2-2.2 3.2-4.1m-5.8 1.5h-4.1v-3.1h4.1c1.1 0 2 .7 2 1.5 0 .9-.9 1.6-2 1.6"/><path fill="#010202" d="M105.2 16.8h-12.7v3.1h4.6v12.9h3.6v-12.9h4.5zM90.6 29.6c.7-1.8.6-3.2.6-4.9s.1-3.1-.6-4.9c-1-2.7-3.3-3.6-6.6-3.6s-5.6.9-6.6 3.6c-.7 1.8-.6 3.2-.6 4.9s-.1 3.1.6 4.9c1 2.7 3.3 3.6 6.6 3.6 3.3.1 5.6-.8 6.6-3.6m-3.5-1.2c-.5 1.3-1.6 1.8-3 1.8s-2.5-.5-3-1.8c-.4-1-.4-1.6-.4-3.6 0-2.1 0-2.7.4-3.6.5-1.3 1.6-1.8 3-1.8s2.5.5 3 1.8c.4 1 .4 1.6.4 3.6s0 2.6-.4 3.6"/><path fill="#010202" d="M20.4 16.8h-3.6v16h11.5v-3h-7.9zM6.3 25.4h4.2c0 1.1.1 2.1-.2 3-.3 1.1-1.6 1.9-3.1 1.9s-2.8-.8-3.1-1.9c-.3-1.1-.4-2.3-.4-3.7s.1-2.6.4-3.7c.3-1.1 1.3-1.9 3.1-1.9 1.5 0 2.6.9 3 2.1l.1.5 3.4-.7c-.1-3.5-3.3-4.6-6.5-4.6s-5.5.9-6.5 3.6c-.6 1.7-.7 3.1-.7 4.7s.1 3.1.7 4.8c1 2.7 3.3 3.6 6.5 3.6 1.9 0 3.5-.5 4.7-1.7l.5 1.4h1.8v-10.2h-7.9v2.8zM101.1 57.5c0-.4-.5-.4-.5-.4-1.1 0-1.6.4-2.1.7-.4.3-.7.5-1.4.5s-1-.2-1.4-.5c-.5-.3-1-.7-2.1-.7s-1.6.4-2.1.7c-.4.3-.7.5-1.4.5s-1-.2-1.4-.5c-.5-.3-1-.7-2.1-.7s-1.6.4-2.1.7c-.4.3-.7.5-1.4.5s-1-.2-1.4-.5c-.5-.3-1-.7-2.1-.7s-1.6.4-2.1.7c-.4.3-.7.5-1.4.5s-1-.2-1.4-.5c-.5-.3-1-.7-2.1-.7s-1.6.4-2.1.7c-.4.3-.7.5-1.4.5s-1-.2-1.4-.5c-.5-.3-1-.7-2.1-.7s-1.6.4-2.1.7c-.4.3-.7.5-1.4.5s-1-.2-1.4-.5c-.5-.3-1-.7-2.1-.7s-1.6.4-2.1.7c-.4.3-.7.5-1.4.5s-1-.2-1.4-.5c-.5-.3-1-.7-2.1-.7-.3 0-.5.2-.5.4s.2.4.5.4c.7 0 1 .2 1.4.5.5.3 1 .7 2.1.7s1.6-.4 2.1-.7c.4-.3.7-.5 1.4-.5s1 .2 1.4.5c.5.3 1 .7 2.1.7s1.6-.4 2.1-.7c.4-.3.7-.5 1.4-.5s1 .2 1.4.5c.5.3 1 .7 2.1.7s1.6-.4 2.1-.7c.4-.3.7-.5 1.4-.5s1 .2 1.4.5c.5.3 1 .7 2.1.7s1.6-.4 2.1-.7c.4-.3.7-.5 1.4-.5s1 .2 1.4.5c.5.3 1 .7 2.1.7s1.6-.4 2.1-.7c.4-.3.7-.5 1.4-.5s1 .2 1.4.5c.5.3 1 .7 2.1.7s1.6-.4 2.1-.7c.4-.3.7-.5 1.4-.5s1 .2 1.4.5c.5.3 1 .7 2.1.7s1.6-.4 2.1-.7c.4-.3.7-.5 1.4-.5 0 .1.5 0 .5-.4M101.1 54.6c0-.4-.4-.4-.4-.4-1.1 0-1.6.4-2.1.7-.4.3-.7.5-1.4.5s-1-.2-1.4-.5c-.5-.3-1-.7-2.1-.7s-1.6.4-2.1.7c-.4.3-.7.5-1.4.5s-1-.2-1.4-.5c-.5-.3-1-.7-2.1-.7s-1.6.4-2.1.7c-.4.3-.7.5-1.4.5s-1-.2-1.4-.5c-.5-.3-1-.7-2.1-.7s-1.6.4-2.1.7c-.4.3-.7.5-1.4.5s-1-.2-1.4-.5c-.5-.3-1-.7-2.1-.7s-1.6.4-2.1.7c-.4.3-.7.5-1.4.5s-1-.2-1.4-.5c-.5-.3-1-.7-2.1-.7s-1.6.4-2.1.7c-.4.3-.7.5-1.4.5s-1-.2-1.4-.5c-.5-.3-1-.7-2.1-.7s-1.6.4-2.1.7c-.4.3-.7.5-1.4.5s-1-.2-1.4-.5c-.5-.3-1-.7-2.1-.7-.3 0-.5.2-.5.4s.2.4.5.4c.7 0 1 .2 1.4.5.5.3 1 .7 2.1.7s1.6-.4 2.1-.7c.4-.3.7-.5 1.4-.5s1 .2 1.4.5c.5.3 1 .7 2.1.7s1.6-.4 2.1-.7c.4-.3.7-.5 1.4-.5s1 .2 1.4.5c.5.3 1 .7 2.1.7s1.6-.4 2.1-.7c.4-.3.7-.5 1.4-.5s1 .2 1.4.5c.5.3 1 .7 2.1.7s1.6-.4 2.1-.7c.4-.3.7-.5 1.4-.5s1 .2 1.4.5c.5.3 1 .7 2.1.7s1.6-.4 2.1-.7c.4-.3.7-.5 1.4-.5s1 .2 1.4.5c.5.3 1 .7 2.1.7s1.6-.4 2.1-.7c.4-.3.7-.5 1.4-.5s1 .2 1.4.5c.5.3 1 .7 2.1.7s1.6-.4 2.1-.7c.4-.3.7-.5 1.4-.5-.1.1.4.1.4-.4M101.1 60.4c0-.4-.5-.4-.5-.4-1.1 0-1.6.4-2.1.7-.4.3-.7.5-1.4.5s-1-.2-1.4-.5c-.5-.3-1-.7-2.1-.7s-1.6.4-2.1.7c-.4.3-.7.5-1.4.5s-1-.2-1.4-.5c-.5-.3-1-.7-2.1-.7s-1.6.4-2.1.7c-.4.3-.7.5-1.4.5s-1-.2-1.4-.5c-.5-.3-1-.7-2.1-.7s-1.6.4-2.1.7c-.4.3-.7.5-1.4.5s-1-.2-1.4-.5c-.5-.3-1-.7-2.1-.7s-1.6.4-2.1.7c-.4.3-.7.5-1.4.5s-1-.2-1.4-.5c-.5-.3-1-.7-2.1-.7s-1.6.4-2.1.7c-.4.3-.7.5-1.4.5s-1-.2-1.4-.5c-.5-.3-1-.7-2.1-.7s-1.6.4-2.1.7c-.4.3-.7.5-1.4.5s-1-.2-1.4-.5c-.5-.3-1-.7-2.1-.7-.3 0-.5.2-.5.4s.2.4.5.4c.7 0 1 .2 1.4.5.5.3 1 .7 2.1.7s1.6-.4 2.1-.7c.4-.3.7-.5 1.4-.5s1 .2 1.4.5c.5.3 1 .7 2.1.7s1.6-.4 2.1-.7c.4-.3.7-.5 1.4-.5s1 .2 1.4.5c.5.3 1 .7 2.1.7s1.6-.4 2.1-.7c.4-.3.7-.5 1.4-.5s1 .2 1.4.5c.5.3 1 .7 2.1.7s1.6-.4 2.1-.7c.4-.3.7-.5 1.4-.5s1 .2 1.4.5c.5.3 1 .7 2.1.7s1.6-.4 2.1-.7c.4-.3.7-.5 1.4-.5s1 .2 1.4.5c.5.3 1 .7 2.1.7s1.6-.4 2.1-.7c.4-.3.7-.5 1.4-.5s1 .2 1.4.5c.5.3 1 .7 2.1.7s1.6-.4 2.1-.7c.4-.3.7-.5 1.4-.5 0 .1.5 0 .5-.4"/></svg>
