<svg xmlns="http://www.w3.org/2000/svg" viewBox="0 0 89.8 14.1" enable-background="new 0 0 89.8 14.1"><path fill="#ffffff" d="M89.8 5.9c0-.7-.8-.7-.8-.7-1.9 0-2.9.7-3.8 1.2-.7.5-1.3.8-2.5.8s-1.8-.4-2.5-.8c-.8-.5-1.8-1.2-3.8-1.2-1.9 0-2.9.7-3.8 1.2-.7.5-1.3.8-2.5.8s-1.8-.4-2.5-.8c-.8-.5-1.8-1.2-3.8-1.2-1.9 0-2.9.7-3.8 1.2-.7.5-1.3.8-2.5.8s-1.8-.4-2.5-.8c-.8-.5-1.8-1.2-3.8-1.2h-.1c-1.9 0-2.9.7-3.8 1.2-.7.5-1.3.8-2.5.8s-1.8-.4-2.5-.8c-.8-.5-1.8-1.2-3.8-1.2-1.9 0-2.9.7-3.8 1.2-.7.5-1.3.8-2.5.8s-1.8-.4-2.5-.8c-.8-.5-1.8-1.2-3.8-1.2h-.1c-1.9 0-2.9.7-3.8 1.2-.7.5-1.3.8-2.5.8s-1.8-.4-2.5-.8c-.8-.5-1.8-1.2-3.8-1.2-1.9 0-2.9.7-3.8 1.2-.4.5-.9.9-2.2.9-1.2 0-1.7-.4-2.5-.9s-1.8-1.2-3.7-1.2c-.6 0-1 .4-1 .8s.4.8 1 .8c1.2 0 1.8.4 2.5.8.8.5 1.8 1.2 3.8 1.2 1.9 0 2.9-.7 3.8-1.2.7-.5 1.3-.8 2.5-.8s1.8.4 2.5.8c.8.5 1.8 1.2 3.8 1.2 1.9 0 2.9-.7 3.8-1.2.7-.5 1.3-.8 2.5-.8h.1c1.2 0 1.8.4 2.5.8.8.5 1.8 1.2 3.8 1.2 1.9 0 2.9-.7 3.8-1.2.7-.5 1.3-.8 2.5-.8s1.8.4 2.5.8c.6.5 1.7 1.2 3.6 1.2 1.9 0 2.9-.7 3.8-1.2.7-.5 1.3-.8 2.5-.8h.1c1.2 0 1.8.4 2.5.8.8.5 1.8 1.2 3.8 1.2 1.9 0 2.9-.7 3.8-1.2.7-.5 1.3-.8 2.5-.8s1.8.4 2.5.8c.8.5 1.8 1.2 3.8 1.2 1.9 0 2.9-.7 3.8-1.2.7-.5 1.3-.8 2.5-.8s1.8.4 2.5.8c.8.5 1.8 1.2 3.8 1.2 1.9 0 2.9-.7 3.8-1.2.7-.5 1.3-.8 2.5-.8-.2 0 .6-.1.6-.9M89.8.8c0-.7-.8-.8-.8-.8-1.9 0-2.9.7-3.8 1.2-.7.5-1.3.8-2.5.8s-1.8-.4-2.5-.8c-.8-.5-1.8-1.2-3.8-1.2-1.9 0-2.9.7-3.8 1.2-.6.5-1.2.8-2.4.8s-1.8-.4-2.5-.8c-.9-.5-1.9-1.2-3.8-1.2s-2.9.7-3.8 1.2c-.7.5-1.3.8-2.5.8s-1.8-.4-2.5-.8c-.8-.5-1.8-1.2-3.7-1.2h-.1c-1.9 0-2.9.7-3.8 1.2-.7.5-1.3.8-2.5.8s-1.8-.4-2.5-.8c-.9-.5-1.9-1.2-3.8-1.2s-2.9.7-3.8 1.2c-.7.5-1.2.8-2.5.8-1.2 0-1.8-.4-2.5-.8-.8-.5-1.8-1.2-3.7-1.2h-.1c-1.9 0-2.9.7-3.8 1.2-.7.5-1.3.8-2.5.8s-1.8-.3-2.5-.8c-.8-.5-1.9-1.2-3.8-1.2s-2.9.7-3.8 1.2c-.7.5-1.2.8-2.5.8-1.2 0-1.7-.3-2.5-.8s-1.8-1.2-3.7-1.2c-.6 0-1 .3-1 .8 0 .4.4.8 1 .8 1.2 0 1.8.4 2.5.8.8.5 1.8 1.2 3.8 1.2 1.9 0 2.9-.7 3.8-1.2.7-.5 1.3-.8 2.5-.8s1.8.4 2.5.8c.8.5 1.8 1.2 3.8 1.2 1.9 0 2.9-.7 3.8-1.2.7-.5 1.3-.8 2.5-.8h.1c1.2 0 1.8.4 2.5.8.8.5 1.8 1.2 3.8 1.2 1.9 0 2.9-.7 3.8-1.2.7-.5 1.3-.8 2.5-.8s1.8.4 2.5.8c.6.5 1.7 1.1 3.6 1.1 1.9 0 2.9-.7 3.8-1.2.7-.5 1.3-.8 2.5-.8h.1c1.2 0 1.8.4 2.5.8.8.5 1.8 1.2 3.8 1.2 1.9 0 2.9-.7 3.8-1.2.7-.5 1.3-.8 2.5-.8s1.8.4 2.5.8c.8.5 1.8 1.2 3.8 1.2 1.9 0 2.9-.7 3.8-1.2.7-.5 1.3-.8 2.5-.8s1.8.4 2.5.8c.8.5 1.8 1.2 3.8 1.2 1.9 0 2.9-.7 3.8-1.2.7-.5 1.3-.8 2.5-.8-.2 0 .6 0 .6-.7M89.8 11.2c0-.7-.8-.7-.8-.7-1.9 0-2.9.7-3.8 1.2-.7.5-1.3.8-2.5.8s-1.8-.4-2.5-.8c-.8-.5-1.8-1.2-3.8-1.2-1.9 0-2.9.7-3.8 1.2-.7.5-1.3.8-2.5.8s-1.8-.4-2.5-.8c-.8-.5-1.8-1.2-3.8-1.2-1.9 0-2.9.7-3.8 1.2-.7.5-1.3.8-2.5.8s-1.8-.4-2.5-.8c-.8-.5-1.8-1.2-3.8-1.2h-.1c-1.9 0-2.9.7-3.8 1.2-.7.5-1.3.8-2.5.8s-1.8-.4-2.5-.8c-.8-.5-1.8-1.2-3.8-1.2-1.9 0-2.9.7-3.8 1.2-.7.5-1.3.8-2.5.8s-1.8-.4-2.5-.8c-.8-.5-1.8-1.2-3.8-1.2h-.1c-1.9 0-2.9.7-3.8 1.2-.7.5-1.3.8-2.5.8s-1.8-.4-2.5-.8c-.8-.5-1.8-1.2-3.8-1.2-1.9 0-2.9.7-3.8 1.2-.7.5-1.3.8-2.5.8s-1.8-.4-2.5-.8c-.8-.5-1.8-1.2-3.8-1.2-.5 0-1 .3-1 .8.4.4.8.7 1.4.7 1.2 0 1.8.4 2.5.8.8.5 1.8 1.2 3.8 1.2 1.9 0 2.9-.7 3.8-1.2.7-.5 1.3-.8 2.5-.8s1.8.4 2.5.8c.8.5 1.8 1.2 3.8 1.2 1.9 0 2.9-.7 3.8-1.2.7-.5 1.3-.8 2.5-.8h.1c1.2 0 1.8.4 2.5.8.8.5 1.8 1.2 3.8 1.2 1.9 0 2.9-.7 3.8-1.2.7-.5 1.3-.8 2.5-.8s1.8.4 2.5.8c.8.5 1.8 1.2 3.8 1.2 1.9 0 2.9-.7 3.8-1.2.7-.5 1.3-.8 2.5-.8h.1c1.2 0 1.8.4 2.5.8.8.5 1.8 1.2 3.8 1.2 1.9 0 2.9-.7 3.8-1.2.7-.5 1.3-.8 2.5-.8s1.8.4 2.5.8c.8.5 1.8 1.2 3.8 1.2 1.9 0 2.9-.7 3.8-1.2.7-.5 1.3-.8 2.5-.8s1.8.4 2.5.8c.8.5 1.8 1.2 3.8 1.2 1.9 0 2.9-.7 3.8-1.2.7-.5 1.3-.8 2.5-.8-.4 0 .4-.1.4-.8"/></svg>
