<svg xmlns="http://www.w3.org/2000/svg" viewBox="0 0 111.2 108.7" enable-background="new 0 0 111.2 108.7"><path fill="#fff" d="M106.2 108.7c-2.8 0-5-2.2-5-5 0-18.9-16.2-27.3-32.3-27.3h-26.6c-16.1 0-32.3 8.5-32.3 27.3 0 2.8-2.2 5-5 5s-5-2.2-5-5c0-22 17.4-37.3 42.3-37.3h26.5c24.9 0 42.3 15.4 42.3 37.3.1 2.7-2.2 5-4.9 5zM55.6 58.7c-16.2 0-29.3-13.2-29.3-29.3s13.1-29.4 29.3-29.4c16.2 0 29.3 13.2 29.3 29.3s-13.1 29.4-29.3 29.4zm0-48.7c-10.7 0-19.3 8.7-19.3 19.3 0 10.7 8.7 19.3 19.3 19.3 10.7 0 19.3-8.7 19.3-19.3 0-10.6-8.7-19.3-19.3-19.3z"/></svg>